#!OML:ASF H:\Not Pregnant\Project 1\Capture day 1\Session 1\non-pregnant.ASF
:FULLY-SPECIFIED
:DEGREES
760
root 15.049 2.05773 31.4321 -410.531 -110.971 -699.993
lowerback 38.7057 5.01651 4.02502
upperback 8.26909 6.4211 -0.220385
thorax -9.19785 2.33144 -4.79006
lowerneck 16.3847 -7.45175 -31.1794
upperneck 1.65559 -18.8831 41.3113
head 5.61305 -12.0159 21.9411
rclavicle -3.83654e-014 5.40694e-014
rhumerus -17.4566 6.5659 -53.1251
rradius 72.8
rwrist 3.09143
rhand -11.5139 6.44235
rfingers 7.12502
rthumb 14.5254 -23.0291
lclavicle -3.83654e-014 5.40694e-014
lhumerus -45.177 4.85962 81.2545
lradius 71.7853
lwrist 71.6503
lhand -52.4444 -60.521
lfingers 7.12502
lthumb -24.9334 -32.1275
rfemur -113.632 -18.5436 57.5688
rtibia 104.136
rfoot 29.4811 13.0806
rtoes -20.6548
lfemur -124.006 16.9187 -60.9426
ltibia 127.034
lfoot -6.83284 10.0449
ltoes -17.0708
761
root 15.0358 2.0556 31.4115 -409.814 -110.971 -700.816
lowerback 38.3713 5.07444 4.01889
upperback 8.04806 6.53042 -0.306009
thorax -9.31487 2.39752 -4.92063
lowerneck 16.2763 -7.37231 -31.1317
upperneck 1.43226 -18.7862 41.7022
head 5.59802 -12.0132 22.2412
rclavicle 1.17084e-013 4.77083e-015
rhumerus -20.3265 6.38208 -53.3982
rradius 71.5966
rwrist 2.50446
rhand -13.9069 6.18407
rfingers 7.12502
rthumb 12.2188 -23.439
lclavicle 1.17084e-013 4.77083e-015
lhumerus -46.1543 4.44154 81.0363
lradius 72.4927
lwrist 70.8752
lhand -52.4157 -56.4296
lfingers 7.12502
lthumb -24.9059 -28.0323
rfemur -113.773 -18.9067 58.1262
rtibia 104.219
rfoot 29.9582 13.1079
rtoes -19.5174
lfemur -124.079 16.9422 -60.791
ltibia 127.21
lfoot -6.49976 9.81685
ltoes -17.4634
762
root 15.024 2.05387 31.3932 -409.105 -110.969 -701.623
lowerback 38.0264 5.12608 4.03175
upperback 7.84059 6.63665 -0.388435
thorax -9.40994 2.46197 -5.05441
lowerneck 16.1529 -7.28479 -31.1117
upperneck 1.19669 -18.6729 42.0951
head 5.5807 -12.0026 22.5609
rclavicle -9.89948e-014 1.43125e-014
rhumerus -23.142 6.00021 -53.5809
rradius 69.9549
rwrist 4.05878
rhand -16.7531 5.90548
rfingers 7.12502
rthumb 9.4736 -23.8616
lclavicle -9.89948e-014 1.43125e-014
lhumerus -47.2663 4.0012 80.8329
lradius 73.3428
lwrist 70.1096
lhand -52.262 -52.442
lfingers 7.12502
lthumb -24.7586 -24.0244
rfemur -113.881 -19.2189 58.5906
rtibia 104.285
rfoot 30.4517 12.9646
rtoes -17.8964
lfemur -124.144 16.96 -60.6431
ltibia 127.355
lfoot -6.19638 9.56258
ltoes -17.2273
763
root 15.0146 2.05361 31.3746 -408.468 -110.962 -702.338
lowerback 37.6427 5.17501 4.02475
upperback 7.65314 6.73245 -0.439298
thorax -9.47384 2.52244 -5.13646
lowerneck 15.9931 -7.18703 -31.1318
upperneck 0.967801 -18.5341 42.4649
head 5.56295 -11.9736 22.8856
rclavicle -7.83212e-014 8.11041e-014
rhumerus -25.8556 5.34783 -53.607
rradius 67.9778
rwrist 7.85413
rhand -19.4853 5.01379
rfingers 7.12502
rthumb 6.83667 -24.8558
lclavicle -7.83212e-014 8.11041e-014
lhumerus -48.5372 3.55283 80.6836
lradius 74.3826
lwrist 69.4455
lhand -52.0126 -49.2932
lfingers 7.12502
lthumb -24.5195 -20.843
rfemur -113.962 -19.496 59.0036
rtibia 104.342
rfoot 30.8828 12.6864
rtoes -16.0022
lfemur -124.204 16.9844 -60.4852
ltibia 127.471
lfoot -5.9191 9.25504
ltoes -16.3513
764
root 15.0036 2.05357 31.3572 -407.896 -110.943 -702.971
lowerback 37.2258 5.1985 4.04871
upperback 7.48397 6.80601 -0.483036
thorax -9.50308 2.57347 -5.21453
lowerneck 15.8094 -7.08127 -31.1611
upperneck 0.745033 -18.3676 42.8048
head 5.5343 -11.9241 23.2003
rclavicle -1.0476e-013 7.95139e-014
rhumerus -28.4637 4.38209 -53.432
rradius 65.7863
rwrist 13.3052
rhand -21.6515 3.31149
rfingers 7.12502
rthumb 4.74525 -26.6154
lclavicle -1.0476e-013 7.95139e-014
lhumerus -49.9662 3.07324 80.5941
lradius 75.6234
lwrist 68.9439
lhand -51.7723 -47.2186
lfingers 7.12502
lthumb -24.2892 -18.7374
rfemur -114.083 -19.7911 59.4169
rtibia 104.415
rfoot 31.2805 12.5746
rtoes -14.6874
lfemur -124.231 16.9568 -60.314
ltibia 127.573
lfoot -5.61908 8.97821
ltoes -15.2318
765
root 14.9916 2.05487 31.3385 -407.42 -110.92 -703.483
lowerback 36.7627 5.20914 4.08723
upperback 7.32978 6.86777 -0.515096
thorax -9.49765 2.62047 -5.27878
lowerneck 15.6061 -6.97239 -31.176
upperneck 0.532993 -18.1791 43.1141
head 5.49355 -11.8566 23.4945
rclavicle -1.31198e-014 6.04305e-014
rhumerus -30.9809 3.1429 -53.0523
rradius 63.4762
rwrist 19.382
rhand -23.0945 1.19196
rfingers 7.12502
rthumb 3.35182 -28.7614
lclavicle -1.31198e-014 6.04305e-014
lhumerus -51.5305 2.56689 80.5327
lradius 77.0321
lwrist 68.6216
lhand -51.6012 -46.2896
lfingers 7.12502
lthumb -24.1252 -17.7865
rfemur -114.244 -20.1103 59.8759
rtibia 104.51
rfoot 31.5423 12.8073
rtoes -14.4007
lfemur -124.256 16.9037 -60.1193
ltibia 127.674
lfoot -5.27914 8.69637
ltoes -14.0723
766
root 14.9761 2.05625 31.322 -406.872 -110.864 -704.058
lowerback 36.2875 5.20233 4.13618
upperback 7.18879 6.90486 -0.571683
thorax -9.46896 2.6566 -5.36276
lowerneck 15.376 -6.86498 -31.174
upperneck 0.331828 -17.9721 43.3913
head 5.44313 -11.7715 23.7617
rclavicle 3.70733e-014 -5.40694e-014
rhumerus -33.3987 1.69929 -52.4683
rradius 61.1359
rwrist 25.1031
rhand -23.7489 -0.91601
rfingers 7.12502
rthumb 2.71985 -30.8784
lclavicle 3.70733e-014 -5.40694e-014
lhumerus -53.1869 2.0698 80.4785
lradius 78.5283
lwrist 68.4929
lhand -51.4955 -46.5613
lfingers 7.12502
lthumb -24.0238 -18.0448
rfemur -114.494 -20.4776 60.3467
rtibia 104.64
rfoot 31.6634 13.5635
rtoes -15.5328
lfemur -124.243 16.7882 -59.953
ltibia 127.764
lfoot -4.9121 8.47483
ltoes -13.0632
767
root 14.9589 2.05822 31.3082 -406.213 -110.746 -704.746
lowerback 35.8159 5.18343 4.17248
upperback 7.06599 6.91315 -0.66235
thorax -9.41915 2.67969 -5.46392
lowerneck 15.1138 -6.76797 -31.14
upperneck 0.131539 -17.7534 43.6397
head 5.38292 -11.6711 23.9929
rclavicle -4.69132e-014 7.95139e-015
rhumerus -35.7297 0.19448 -51.7549
rradius 58.7793
rwrist 29.6029
rhand -23.9463 -2.61166
rfingers 7.12502
rthumb 2.52923 -32.5764
lclavicle -4.69132e-014 7.95139e-015
lhumerus -54.8716 1.62608 80.372
lradius 79.9802
lwrist 68.4206
lhand -51.4025 -47.4413
lfingers 7.12502
lthumb -23.9347 -18.9131
rfemur -114.816 -20.8936 60.7624
rtibia 104.798
rfoot 31.6358 14.6992
rtoes -17.7675
lfemur -124.158 16.6122 -59.8422
ltibia 127.825
lfoot -4.52179 8.30836
ltoes -12.3384
768
root 14.9421 2.06148 31.2984 -405.202 -110.504 -705.805
lowerback 35.2869 5.17921 4.08033
upperback 7.04617 6.87745 -0.787798
thorax -9.36599 2.68314 -5.53569
lowerneck 14.8034 -6.68063 -31.1159
upperneck -0.0614708 -17.5287 43.8605
head 5.32788 -11.558 24.2004
rclavicle -1.95306e-014 3.33958e-014
rhumerus -37.9632 -1.20834 -50.9983
rradius 56.3929
rwrist 32.2231
rhand -24.2033 -3.91557
rfingers 7.12502
rthumb 2.28102 -33.8831
lclavicle -1.95306e-014 3.33958e-014
lhumerus -56.5361 1.32532 80.1642
lradius 81.2671
lwrist 68.3512
lhand -51.2043 -48.896
lfingers 7.12502
lthumb -23.7445 -20.343
rfemur -115.199 -21.3273 60.9643
rtibia 104.98
rfoot 31.4813 15.9553
rtoes -20.4843
lfemur -123.942 16.3818 -59.8896
ltibia 127.82
lfoot -4.15755 8.21262
ltoes -11.8864
769
root 14.9263 2.06622 31.2924 -403.949 -110.209 -707.129
lowerback 34.8724 5.17563 3.93882
upperback 6.96491 6.82106 -0.961146
thorax -9.30534 2.67605 -5.60786
lowerneck 14.4594 -6.60215 -31.0907
upperneck -0.256676 -17.2951 44.0546
head 5.26919 -11.4315 24.3808
rclavicle -1.49585e-014 -1.59028e-015
rhumerus -40.1025 -2.39818 -50.2997
rradius 53.9389
rwrist 32.6143
rhand -24.9034 -4.87568
rfingers 7.12502
rthumb 1.60486 -34.8494
lclavicle -1.49585e-014 -1.59028e-015
lhumerus -58.1528 1.13131 79.8577
lradius 82.2752
lwrist 68.2071
lhand -50.8686 -50.5527
lfingers 7.12502
lthumb -23.4225 -21.9582
rfemur -115.586 -21.7792 61.0324
rtibia 105.162
rfoot 31.2643 17.0636
rtoes -23.0511
lfemur -123.636 16.1444 -60.0366
ltibia 127.766
lfoot -3.79306 8.15486
ltoes -11.7449
